<svg xmlns="http://www.w3.org/2000/svg" viewBox="0 0 900 500" width="900" height="500" role="img" aria-label="fNIRS illustrative brain measurement diagram. Not patient data."><defs>
<radialGradient id="tissue" cx="46%" cy="42%" r="71%"><stop offset="0" stop-color="#9eafb1"/><stop offset=".52" stop-color="#677e82"/><stop offset="1" stop-color="#253c49"/></radialGradient>
<linearGradient id="greyScale"><stop offset="0" stop-color="#1a2935"/><stop offset=".48" stop-color="#7b8b90"/><stop offset="1" stop-color="#f2f0e7"/></linearGradient>
<filter id="glow"><feGaussianBlur stdDeviation="8"/></filter><filter id="heat"><feGaussianBlur stdDeviation="16"/></filter><filter id="pixel"><feGaussianBlur stdDeviation="1.6"/></filter></defs>
<rect width="900" height="500" fill="#07161c"/><rect x="13" y="13" width="874" height="474" rx="12" fill="#0d2027" stroke="#294955" stroke-width="1.5"/>
<path d="M46 62V443" fill="none" stroke="#487380" stroke-width="0.6" stroke-opacity="0.14" stroke-linejoin="round" stroke-linecap="round"/><path d="M95 62V443" fill="none" stroke="#487380" stroke-width="0.6" stroke-opacity="0.14" stroke-linejoin="round" stroke-linecap="round"/><path d="M144 62V443" fill="none" stroke="#487380" stroke-width="0.6" stroke-opacity="0.14" stroke-linejoin="round" stroke-linecap="round"/><path d="M193 62V443" fill="none" stroke="#487380" stroke-width="0.6" stroke-opacity="0.14" stroke-linejoin="round" stroke-linecap="round"/><path d="M242 62V443" fill="none" stroke="#487380" stroke-width="0.6" stroke-opacity="0.14" stroke-linejoin="round" stroke-linecap="round"/><path d="M291 62V443" fill="none" stroke="#487380" stroke-width="0.6" stroke-opacity="0.14" stroke-linejoin="round" stroke-linecap="round"/><path d="M340 62V443" fill="none" stroke="#487380" stroke-width="0.6" stroke-opacity="0.14" stroke-linejoin="round" stroke-linecap="round"/><path d="M389 62V443" fill="none" stroke="#487380" stroke-width="0.6" stroke-opacity="0.14" stroke-linejoin="round" stroke-linecap="round"/><path d="M438 62V443" fill="none" stroke="#487380" stroke-width="0.6" stroke-opacity="0.14" stroke-linejoin="round" stroke-linecap="round"/><path d="M487 62V443" fill="none" stroke="#487380" stroke-width="0.6" stroke-opacity="0.14" stroke-linejoin="round" stroke-linecap="round"/><path d="M536 62V443" fill="none" stroke="#487380" stroke-width="0.6" stroke-opacity="0.14" stroke-linejoin="round" stroke-linecap="round"/><path d="M585 62V443" fill="none" stroke="#487380" stroke-width="0.6" stroke-opacity="0.14" stroke-linejoin="round" stroke-linecap="round"/><path d="M634 62V443" fill="none" stroke="#487380" stroke-width="0.6" stroke-opacity="0.14" stroke-linejoin="round" stroke-linecap="round"/><path d="M683 62V443" fill="none" stroke="#487380" stroke-width="0.6" stroke-opacity="0.14" stroke-linejoin="round" stroke-linecap="round"/><path d="M732 62V443" fill="none" stroke="#487380" stroke-width="0.6" stroke-opacity="0.14" stroke-linejoin="round" stroke-linecap="round"/><path d="M781 62V443" fill="none" stroke="#487380" stroke-width="0.6" stroke-opacity="0.14" stroke-linejoin="round" stroke-linecap="round"/><path d="M830 62V443" fill="none" stroke="#487380" stroke-width="0.6" stroke-opacity="0.14" stroke-linejoin="round" stroke-linecap="round"/>
<rect x="42" y="62" width="406" height="364" rx="15" fill="#07141a" stroke="#30545e"/>
<rect x="478" y="62" width="381" height="364" rx="15" fill="#0b1c22" stroke="#30545e"/>
<text x="44" y="45" fill="#f3e9d8" font-family="system-ui,-apple-system,Segoe UI,Arial" font-size="22" letter-spacing=".06em">fNIRS</text><text x="695" y="44" fill="#8cbfc8" font-family="system-ui,-apple-system,Segoe UI,Arial" font-size="11" letter-spacing=".06em">HAEMODYNAMICS</text><path d="M135 290 Q90 275 104 220 Q88 190 118 137 Q135 72 237 69 Q335 53 389 126 Q422 183 386 241 Q389 301 310 347 Q233 379 167 333 Q150 324 135 290Z" fill="#384c55" stroke="#cad4d8" stroke-width="7"/><path d="M155 296 Q133 260 142 195 Q155 123 240 113 Q336 101 369 170 Q395 235 331 309 Q245 352 175 308Z" fill="url(#tissue)" stroke="#84989e" stroke-width="3"/><path d="M 130 98 C 180 63,270 130, 341 93 S 390 113, 400 91" fill="none" stroke="#c9d6d0" stroke-width="1.6" stroke-opacity="0.18" stroke-linejoin="round" stroke-linecap="round"/><path d="M 143 115 C 180 80,270 147, 341 110 S 390 130, 400 108" fill="none" stroke="#c9d6d0" stroke-width="1.6" stroke-opacity="0.18" stroke-linejoin="round" stroke-linecap="round"/><path d="M 156 132 C 180 97,270 164, 341 127 S 390 147, 400 125" fill="none" stroke="#c9d6d0" stroke-width="1.6" stroke-opacity="0.18" stroke-linejoin="round" stroke-linecap="round"/><path d="M 169 149 C 180 114,270 181, 341 144 S 390 164, 400 142" fill="none" stroke="#c9d6d0" stroke-width="1.6" stroke-opacity="0.18" stroke-linejoin="round" stroke-linecap="round"/><path d="M 130 166 C 180 131,270 198, 341 161 S 390 181, 400 159" fill="none" stroke="#c9d6d0" stroke-width="1.6" stroke-opacity="0.18" stroke-linejoin="round" stroke-linecap="round"/><path d="M 143 183 C 180 148,270 215, 341 178 S 390 198, 400 176" fill="none" stroke="#c9d6d0" stroke-width="1.6" stroke-opacity="0.18" stroke-linejoin="round" stroke-linecap="round"/><path d="M 156 200 C 180 165,270 232, 341 195 S 390 215, 400 193" fill="none" stroke="#c9d6d0" stroke-width="1.6" stroke-opacity="0.18" stroke-linejoin="round" stroke-linecap="round"/><path d="M 169 217 C 180 182,270 249, 341 212 S 390 232, 400 210" fill="none" stroke="#c9d6d0" stroke-width="1.6" stroke-opacity="0.18" stroke-linejoin="round" stroke-linecap="round"/><path d="M 130 234 C 180 199,270 266, 341 229 S 390 249, 400 227" fill="none" stroke="#c9d6d0" stroke-width="1.6" stroke-opacity="0.18" stroke-linejoin="round" stroke-linecap="round"/><path d="M 143 251 C 180 216,270 283, 341 246 S 390 266, 400 244" fill="none" stroke="#c9d6d0" stroke-width="1.6" stroke-opacity="0.18" stroke-linejoin="round" stroke-linecap="round"/><path d="M 156 268 C 180 233,270 300, 341 263 S 390 283, 400 261" fill="none" stroke="#c9d6d0" stroke-width="1.6" stroke-opacity="0.18" stroke-linejoin="round" stroke-linecap="round"/><path d="M 169 285 C 180 250,270 317, 341 280 S 390 300, 400 278" fill="none" stroke="#c9d6d0" stroke-width="1.6" stroke-opacity="0.18" stroke-linejoin="round" stroke-linecap="round"/><path d="M 130 302 C 180 267,270 334, 341 297 S 390 317, 400 295" fill="none" stroke="#c9d6d0" stroke-width="1.6" stroke-opacity="0.18" stroke-linejoin="round" stroke-linecap="round"/><path d="M 143 319 C 180 284,270 351, 341 314 S 390 334, 400 312" fill="none" stroke="#c9d6d0" stroke-width="1.6" stroke-opacity="0.18" stroke-linejoin="round" stroke-linecap="round"/><path d="M 156 336 C 180 301,270 368, 341 331 S 390 351, 400 329" fill="none" stroke="#c9d6d0" stroke-width="1.6" stroke-opacity="0.18" stroke-linejoin="round" stroke-linecap="round"/><path d="M 169 353 C 180 318,270 385, 341 348 S 390 368, 400 346" fill="none" stroke="#c9d6d0" stroke-width="1.6" stroke-opacity="0.18" stroke-linejoin="round" stroke-linecap="round"/><path d="M 130 370 C 180 335,270 402, 341 365 S 390 385, 400 363" fill="none" stroke="#c9d6d0" stroke-width="1.6" stroke-opacity="0.18" stroke-linejoin="round" stroke-linecap="round"/><path d="M230 198 Q242 171 253 197 Q268 221 276 197 Q297 179 297 214 Q279 230 270 241 Q256 222 242 236Z" fill="#071319" stroke="#899da3" stroke-width="2"/><circle cx="163" cy="122" r="8" fill="#ef9e80" stroke="#fff" stroke-width="1.2"/><circle cx="223" cy="96" r="8" fill="#ef9e80" stroke="#fff" stroke-width="1.2"/><circle cx="276" cy="98" r="8" fill="#ef9e80" stroke="#fff" stroke-width="1.2"/><circle cx="332" cy="118" r="8" fill="#ef9e80" stroke="#fff" stroke-width="1.2"/><circle cx="378" cy="177" r="8" fill="#ef9e80" stroke="#fff" stroke-width="1.2"/><circle cx="186" cy="106" r="6" fill="#8dc8ed" stroke="#fff" stroke-width="1.2"/><circle cx="248" cy="91" r="6" fill="#8dc8ed" stroke="#fff" stroke-width="1.2"/><circle cx="305" cy="107" r="6" fill="#8dc8ed" stroke="#fff" stroke-width="1.2"/><circle cx="350" cy="143" r="6" fill="#8dc8ed" stroke="#fff" stroke-width="1.2"/><path d="M165 120 Q182 173 219 127" fill="none" stroke="#ee9e83" stroke-width="2.3" stroke-opacity="0.8" stroke-linejoin="round" stroke-linecap="round"/><path d="M205 113 Q222 169 256 123" fill="none" stroke="#ee9e83" stroke-width="2.3" stroke-opacity="0.8" stroke-linejoin="round" stroke-linecap="round"/><path d="M245 106 Q262 165 293 119" fill="none" stroke="#ee9e83" stroke-width="2.3" stroke-opacity="0.8" stroke-linejoin="round" stroke-linecap="round"/><path d="M285 99 Q302 161 330 115" fill="none" stroke="#ee9e83" stroke-width="2.3" stroke-opacity="0.8" stroke-linejoin="round" stroke-linecap="round"/><text x="520" y="131" fill="#cfe8df" font-family="system-ui,-apple-system,Segoe UI,Arial" font-size="16" letter-spacing=".06em">SURFACE OXYGENATION</text><path d="M520 156H840" fill="none" stroke="#7c9b9a" stroke-width="1" stroke-opacity="0.16" stroke-linejoin="round" stroke-linecap="round"/><path d="M520 190.2H840" fill="none" stroke="#7c9b9a" stroke-width="1" stroke-opacity="0.16" stroke-linejoin="round" stroke-linecap="round"/><path d="M520 224.4H840" fill="none" stroke="#7c9b9a" stroke-width="1" stroke-opacity="0.16" stroke-linejoin="round" stroke-linecap="round"/><path d="M520 258.6H840" fill="none" stroke="#7c9b9a" stroke-width="1" stroke-opacity="0.16" stroke-linejoin="round" stroke-linecap="round"/><path d="M520 292.8H840" fill="none" stroke="#7c9b9a" stroke-width="1" stroke-opacity="0.16" stroke-linejoin="round" stroke-linecap="round"/><path d="M520 327H840" fill="none" stroke="#7c9b9a" stroke-width="1" stroke-opacity="0.16" stroke-linejoin="round" stroke-linecap="round"/><path d="M520 156V327" fill="none" stroke="#7c9b9a" stroke-width="1" stroke-opacity="0.11" stroke-linejoin="round" stroke-linecap="round"/><path d="M560 156V327" fill="none" stroke="#7c9b9a" stroke-width="1" stroke-opacity="0.11" stroke-linejoin="round" stroke-linecap="round"/><path d="M600 156V327" fill="none" stroke="#7c9b9a" stroke-width="1" stroke-opacity="0.11" stroke-linejoin="round" stroke-linecap="round"/><path d="M640 156V327" fill="none" stroke="#7c9b9a" stroke-width="1" stroke-opacity="0.11" stroke-linejoin="round" stroke-linecap="round"/><path d="M680 156V327" fill="none" stroke="#7c9b9a" stroke-width="1" stroke-opacity="0.11" stroke-linejoin="round" stroke-linecap="round"/><path d="M720 156V327" fill="none" stroke="#7c9b9a" stroke-width="1" stroke-opacity="0.11" stroke-linejoin="round" stroke-linecap="round"/><path d="M760 156V327" fill="none" stroke="#7c9b9a" stroke-width="1" stroke-opacity="0.11" stroke-linejoin="round" stroke-linecap="round"/><path d="M800 156V327" fill="none" stroke="#7c9b9a" stroke-width="1" stroke-opacity="0.11" stroke-linejoin="round" stroke-linecap="round"/><path d="M840 156V327" fill="none" stroke="#7c9b9a" stroke-width="1" stroke-opacity="0.11" stroke-linejoin="round" stroke-linecap="round"/><path d="M520 197.5 L521.9 206 L523.8 216.9 L525.7 229.3 L527.6 242 L529.5 253.8 L531.4 263.3 L533.3 269.8 L535.1 272.7 L537 272.4 L538.9 269.4 L540.8 264.9 L542.7 260 L544.6 255.8 L546.5 253.1 L548.4 252.1 L550.3 252.9 L552.2 254.8 L554.1 257.2 L556 259.2 L557.9 260.2 L559.8 260.1 L561.7 258.9 L563.6 257.2 L565.4 255.6 L567.3 254.9 L569.2 255.6 L571.1 258 L573 261.7 L574.9 266.2 L576.8 270.3 L578.7 273 L580.6 273.2 L582.5 270.2 L584.4 263.8 L586.3 254.2 L588.2 242.3 L590.1 229.3 L592 216.6 L593.8 205.4 L595.7 196.7 L597.6 190.9 L599.5 187.9 L601.4 187.2 L603.3 188.1 L605.2 189.6 L607.1 190.9 L609 191.6 L610.9 191.6 L612.8 191.2 L614.7 191 L616.6 191.6 L618.5 193.6 L620.4 197.4 L622.2 202.7 L624.1 209 L626 215.5 L627.9 221.1 L629.8 224.9 L631.7 226.2 L633.6 224.8 L635.5 220.9 L637.4 215.4 L639.3 209.5 L641.2 204.3 L643.1 201.2 L645 200.9 L646.9 203.9 L648.8 210 L650.7 218.5 L652.5 228.4 L654.4 238.5 L656.3 247.9 L658.2 255.7 L660.1 261.6 L662 265.9 L663.9 268.8 L665.8 271.2 L667.7 273.6 L669.6 276.4 L671.5 279.7 L673.4 283.2 L675.3 286.3 L677.2 288.1 L679.1 287.8 L680.9 284.8 L682.8 279 L684.7 270.7 L686.6 260.6 L688.5 250 L690.4 240.1 L692.3 232.1 L694.2 226.8 L696.1 224.8 L698 225.7 L699.9 228.9 L701.8 233.3 L703.7 237.8 L705.6 241.1 L707.5 242.6 L709.3 241.7 L711.2 238.7 L713.1 234.1 L715 228.7 L716.9 223.2 L718.8 218.4 L720.7 214.7 L722.6 211.9 L724.5 209.8 L726.4 207.7 L728.3 204.9 L730.2 200.9 L732.1 195.4 L734 188.7 L735.9 181.5 L737.8 174.8 L739.6 169.7 L741.5 167.2 L743.4 168.1 L745.3 172.6 L747.2 180.5 L749.1 191 L751 202.8 L752.9 214.6 L754.8 225.2 L756.7 233.5 L758.6 239.2 L760.5 242.2 L762.4 243.1 L764.3 242.6 L766.2 241.9 L768 241.5 L769.9 242.2 L771.8 244 L773.7 246.6 L775.6 249.5 L777.5 252 L779.4 253.4 L781.3 253.5 L783.2 252.1 L785.1 249.8 L787 247.4 L788.9 245.7 L790.8 245.8 L792.7 248.1 L794.6 252.9 L796.4 260 L798.3 268.4 L800.2 277 L802.1 284.6 L804 289.9 L805.9 291.9 L807.8 290.3 L809.7 285.3 L811.6 277.5 L813.5 267.9 L815.4 257.7 L817.3 248 L819.2 239.6 L821.1 232.8 L823 227.7 L824.9 223.7 L826.7 220.2 L828.6 216.5 L830.5 212.2 L832.4 207.2 L834.3 201.8 L836.2 196.4 L838.1 192 L840 189.4 " fill="none" stroke="#f4ab90" stroke-width="2.7" stroke-opacity="0.93" stroke-linejoin="round" stroke-linecap="round"/><path d="M520 274.6 L521.9 274.1 L523.8 272.8 L525.7 270.1 L527.6 265.7 L529.5 259.6 L531.4 252.1 L533.3 243.7 L535.1 235.4 L537 228.1 L538.9 222.6 L540.8 219.3 L542.7 218.5 L544.6 220 L546.5 223.1 L548.4 227 L550.3 230.7 L552.2 233.5 L554.1 234.7 L556 234.2 L557.9 232.2 L559.8 229 L561.7 225.3 L563.6 221.8 L565.4 219 L567.3 217.2 L569.2 216.2 L571.1 215.9 L573 215.8 L574.9 215.4 L576.8 214.4 L578.7 212.5 L580.6 209.9 L582.5 207.2 L584.4 205 L586.3 204.1 L588.2 205.1 L590.1 208.5 L592 214.2 L593.8 222.1 L595.7 231.3 L597.6 241.1 L599.5 250.2 L601.4 257.9 L603.3 263.6 L605.2 266.9 L607.1 268 L609 267.4 L610.9 265.7 L612.8 263.8 L614.7 262.2 L616.6 261.4 L618.5 261.4 L620.4 262.1 L622.2 263 L624.1 263.6 L626 263.5 L627.9 262.5 L629.8 260.5 L631.7 257.9 L633.6 255.2 L635.5 253.2 L637.4 252.3 L639.3 252.9 L641.2 255.3 L643.1 259 L645 263.4 L646.9 267.8 L648.8 271.1 L650.7 272.5 L652.5 271.5 L654.4 267.9 L656.3 262 L658.2 254.4 L660.1 245.8 L662 237.3 L663.9 229.7 L665.8 223.4 L667.7 218.8 L669.6 215.8 L671.5 213.9 L673.4 212.7 L675.3 211.6 L677.2 210.3 L679.1 208.6 L680.9 206.8 L682.8 205.1 L684.7 204.1 L686.6 204.5 L688.5 206.4 L690.4 210.1 L692.3 215.2 L694.2 221.3 L696.1 227.4 L698 232.8 L699.9 236.7 L701.8 238.4 L703.7 238 L705.6 235.6 L707.5 231.8 L709.3 227.5 L711.2 223.6 L713.1 221.1 L715 220.4 L716.9 221.7 L718.8 225 L720.7 229.8 L722.6 235.3 L724.5 240.9 L726.4 246.1 L728.3 250.4 L730.2 253.8 L732.1 256.6 L734 259.1 L735.9 261.8 L737.8 265.1 L739.6 269.2 L741.5 273.8 L743.4 278.6 L745.3 282.8 L747.2 285.8 L749.1 286.8 L751 285.5 L752.9 281.6 L754.8 275.5 L756.7 268 L758.6 259.8 L760.5 252 L762.4 245.5 L764.3 240.8 L766.2 238.4 L768 237.9 L769.9 239 L771.8 240.9 L773.7 242.9 L775.6 244.2 L777.5 244.4 L779.4 243.4 L781.3 241.5 L783.2 238.9 L785.1 236.2 L787 234 L788.9 232.4 L790.8 231.7 L792.7 231.5 L794.6 231.3 L796.4 230.6 L798.3 228.8 L800.2 225.5 L802.1 220.7 L804 214.6 L805.9 207.9 L807.8 201.5 L809.7 196.2 L811.6 192.9 L813.5 192.2 L815.4 194.3 L817.3 198.9 L819.2 205.4 L821.1 213.1 L823 221 L824.9 228.1 L826.7 234 L828.6 238.4 L830.5 241.4 L832.4 243.3 L834.3 244.7 L836.2 246.1 L838.1 247.9 L840 250.3 " fill="none" stroke="#86cbea" stroke-width="2.7" stroke-opacity="0.93" stroke-linejoin="round" stroke-linecap="round"/><text x="520" y="381" fill="#ecd9be" font-family="system-ui,-apple-system,Segoe UI,Arial" font-size="15" letter-spacing=".06em">HbO / HbR trends (illustrative)</text>
<text x="44" y="460" fill="#99babc" font-family="system-ui,-apple-system,Segoe UI,Arial" font-size="13" letter-spacing=".06em">ILLUSTRATIVE • NOT A CLINICAL SCAN</text>
<text x="856" y="460" fill="#b7c9c5" font-family="system-ui,-apple-system,Segoe UI,Arial" font-size="12" letter-spacing=".06em">MANIFOLD GRACE • LEARNING LAB</text></svg>